<svg width="24" height="24" viewBox="0 0 24 24" fill="none" xmlns="http://www.w3.org/2000/svg">
<path d="M12 2C13.6569 2 15 3.34315 15 5V5.80269C16.7934 6.84012 18 8.77915 18 11V13H19C19.5523 13 20 13.4477 20 14V18C20 18.5523 19.5523 19 19 19H17.8293C17.4175 20.1652 16.3062 21 15 21H9C7.69378 21 6.58254 20.1652 6.17071 19H5C4.44772 19 4 18.5523 4 18V14C4 13.4477 4.44772 13 5 13H6V11C6 8.77915 7.2066 6.84012 9 5.80269V5C9 3.34315 10.3431 2 12 2ZM12 5C12.6989 5 13.3699 5.11949 13.9936 5.33916C13.9117 4.3098 13.0504 3.5 12 3.5C10.9496 3.5 10.0883 4.3098 10.0064 5.33916C10.6301 5.11949 11.3011 5 12 5ZM8 15.5C8 15.7761 8.22386 16 8.5 16H9.5L10.25 17.299C10.3881 17.5382 10.6939 17.6201 10.933 17.4821C11.1722 17.344 11.2541 17.0382 11.116 16.799L10.6547 16H15.5C15.7761 16 16 15.7761 16 15.5C16 15.2239 15.7761 15 15.5 15H8.5C8.22386 15 8 15.2239 8 15.5Z" fill="#161616"/>
</svg>
