<svg xmlns="http://www.w3.org/2000/svg" viewBox="0 0 24 14">
    <path d="M19.3862 0C19.8335 0 20.2642 0.12939 20.6318 0.37451C21.7031 1.08643 23.5 2.99219 23.5 7.75V10.25C23.5 11.4907 22.4907 12.5 21.25 12.5H20C20 11.1193 18.8807 10 17.5 10C16.1193 10 15 11.1193 15 12.5H8C8 11.1193 6.88071 10 5.5 10C4.11929 10 3 11.1193 3 12.5H2.25C1.00928 12.5 0 11.4907 0 10.25V2.25C0 1.00928 1.00928 0 2.25 0H19.3862ZM21.9788 6.93952C21.7961 3.34827 20.4175 2.03339 19.8008 1.62305C19.6782 1.5415 19.5391 1.50001 19.3862 1.50001H16.5V5.02149C19.1115 5.17353 20.8854 6.10285 21.9788 6.93952ZM15 1.5H2.25001C1.83644 1.5 1.5 1.83643 1.5 2.25V5H15V1.5Z"/>
    <path d="M19 12.5C19 13.3284 18.3284 14 17.5 14C16.6716 14 16 13.3284 16 12.5C16 11.6716 16.6716 11 17.5 11C18.3284 11 19 11.6716 19 12.5Z"/>
    <path d="M7 12.5C7 13.3284 6.32843 14 5.5 14C4.67157 14 4 13.3284 4 12.5C4 11.6716 4.67157 11 5.5 11C6.32843 11 7 11.6716 7 12.5Z"/>
  </svg>
