<svg xmlns="http://www.w3.org/2000/svg" viewBox="0 0 36 36">
    <circle opacity="0.2" cx="18" cy="18" r="10" fill="#0062E3"/>
    <path d="M5.20103 8.41512L9.38736 10.8662C9.67793 11.0213 10.0337 10.966 10.2656 10.7296L12.5 8.5C12.7135 8.28245 12.2757 8.07863 11.9788 8.02261L6.46284 6.89625C6.22002 6.85043 5.97062 6.92936 5.796 7.1073L5.10988 7.80647C4.931 7.98874 4.97695 8.29551 5.20103 8.41512Z" fill="#161616"/>
    <path d="M8.08353 14.0567C8.3208 14.0952 8.56179 14.0155 8.73167 13.8424L16.5787 5.84624C16.9759 5.44152 17.474 5.16149 17.9982 5.04816L18.1328 5.01907C18.6713 4.90268 19.0955 5.33497 18.9813 5.88365L18.9527 6.02082C18.8415 6.55505 18.5667 7.06262 18.1695 7.46733L15.633 10.0521C15.4589 10.2295 15.3813 10.4828 15.4255 10.7296L16.5872 17.2176C16.6453 17.4744 16.5696 17.7435 16.3868 17.9298L15.7156 18.6138C15.5367 18.796 15.2357 18.7492 15.1183 18.5209L12.675 13.7678C12.5577 13.5395 12.2566 13.4927 12.0777 13.6749L10.351 15.4345C10.1654 15.6236 10.0904 15.8977 10.153 16.1573L10.5947 17.988C10.6192 18.3715 10.3824 18.7566 10.0217 18.9205L10.0205 18.9206C9.60629 19.1097 9.15916 18.9503 9.00151 18.5561L8.19299 16.5477C8.11667 16.3581 7.85679 16.0757 7.66519 16.0099L5.52416 15.3759C5.15396 15.2141 4.99676 14.7725 5.16279 14.3511C5.31431 13.9639 5.69683 13.7064 6.07919 13.7317L8.08353 14.0567Z" fill="#161616"/>
    <path d="M29.1991 19C29.5036 19 29.7968 19.0881 30.0471 19.255C30.7765 19.7397 31.9999 21.0372 31.9999 24.2766L32 27.4681C32 28.3128 31.3128 29 30.4681 29H30C30 27.8954 29.1046 27 28 27C26.8954 27 26 27.8954 26 29H22C22 27.8954 21.1046 27 20 27C18.8954 27 18 27.8954 18 29H17.5319C16.6872 29 16 28.3128 16 27.4681V20.5319C16 19.6872 16.6872 19 17.5319 19H29.1991ZM30.9999 24C30.9999 21.5 29.8858 20.3742 29.4813 20.1051C29.3979 20.0495 29.3031 20.0213 29.1991 20.0213H27.234L27.234 23C29.012 23.1035 30.2555 23.4304 30.9999 24ZM26.2127 20.0213H17.5319C17.2503 20.0213 17.0213 20.2503 17.0213 20.5319L17.0213 22.9854H26.2127L26.2127 20.0213Z" fill="#161616"/>
    <path d="M21 29C21 29.5523 20.5523 30 20 30C19.4477 30 19 29.5523 19 29C19 28.4477 19.4477 28 20 28C20.5523 28 21 28.4477 21 29Z" fill="#161616"/>
    <path d="M28 30C28.5523 30 29 29.5523 29 29C29 28.4477 28.5523 28 28 28C27.4477 28 27 28.4477 27 29C27 29.5523 27.4477 30 28 30Z" fill="#161616"/>
</svg>
