<svg xmlns="http://www.w3.org/2000/svg" viewBox="0 0 24 24"><path stroke="#626971" d="M12 2C9.297 2 7.312 3.29 6.457 4.227 6.111 4.606 6 5.07 6 5.455V20a1 1 0 0 0 1 1h10a1 1 0 0 0 1-1V5.515a1.89 1.89 0 0 0-.555-1.356C16.547 3.279 14.693 2 12 2ZM8.5 7a.5.5 0 0 1-.5-.5v-.583c0-.264.1-.52.306-.684C9.003 4.676 10.296 4 12 4c1.7 0 2.944.676 3.677 1.262.214.171.323.436.323.71V6.5a.5.5 0 0 1-.5.5h-7Z" clip-rule="evenodd"/><path stroke="#626971" d="M22 19.5c0 .614-.305.826-.781 1.094a.833.833 0 0 1-.491.115c-.484-.05-.728-.262-.728-.748V8.592c0-.566.496-.592.99-.314.605.34 1.01.514 1.01 1.222v10ZM2 19.5c0 .614.305.826.781 1.094.15.084.32.135.49.108.392-.062.729-.276.729-.741V8.592c0-.566-.496-.592-.99-.314C2.405 8.618 2 8.792 2 9.5v10Z"/></svg>