<svg xmlns="http://www.w3.org/2000/svg" viewBox="0 0 24 24"><path d="M12 21.3a.8.8 0 0 1-.437-.13c-.407-.265-9.98-6.569-9.98-12.693a5.65 5.65 0 0 1 1.674-4.1A5.7 5.7 0 0 1 7.303 2.7c1.528 0 2.964.595 4.045 1.677q.363.36.652.778a6 6 0 0 1 .651-.779A5.68 5.68 0 0 1 16.696 2.7c1.527 0 2.965.595 4.046 1.676a5.66 5.66 0 0 1 1.675 4.111c0 6.114-9.574 12.418-9.98 12.683a.8.8 0 0 1-.437.13m-4.697-17c-1.1 0-2.135.429-2.915 1.208a4.07 4.07 0 0 0-1.206 2.957c0 4.602 6.983 9.784 8.818 11.067 1.835-1.282 8.817-6.464 8.817-11.055a4.08 4.08 0 0 0-1.206-2.969A4.1 4.1 0 0 0 16.696 4.3c-1.1 0-2.135.429-2.914 1.208a4.06 4.06 0 0 0-1.017 1.687.8.8 0 0 1-1.531 0 4.05 4.05 0 0 0-1.017-1.687A4.1 4.1 0 0 0 7.303 4.3"/></svg>