<svg xmlns="http://www.w3.org/2000/svg" viewBox="0 0 24 24"><path d="M21.994 12.34c.004-.113.006-.226.006-.34 0-5.523-4.477-10-10-10S2 6.477 2 12s4.477 10 10 10a9.993 9.993 0 0 0 3.127-.499 5.968 5.968 0 0 1-1.087-2.8A7.067 7.067 0 0 1 12 19a7.037 7.037 0 0 1-5.79-3.025c-.427-.613-.173-1.435.5-1.762A12.061 12.061 0 0 1 12 13c1.358 0 2.664.223 3.883.636A5.98 5.98 0 0 1 20 12c.7 0 1.37.12 1.994.34ZM9.5 6.38C9.5 5.618 10.17 5 10.995 5h2.01c.825 0 1.495.618 1.495 1.381v2.31C14.5 9.965 13.38 11 12 11S9.5 9.965 9.5 8.69V6.382Z" clip-rule="evenodd"/><circle cx="20" cy="18" r="4"/></svg>