<svg width="24" height="24" viewBox="0 0 24 24" fill="none" xmlns="http://www.w3.org/2000/svg">
<path fill-rule="evenodd" clip-rule="evenodd" d="M19.7986 4.5C20.2554 4.5 20.6952 4.63214 21.0707 4.88248C22.1647 5.60955 23.9998 7.55585 23.9998 12.4149L24 17.2021C24 18.4692 22.9692 19.5 21.7021 19.5H21C21 17.8431 19.6569 16.5 18 16.5C16.3431 16.5 15 17.8431 15 19.5H9C9 17.8431 7.65685 16.5 6 16.5C4.34315 16.5 3 17.8431 3 19.5H2.29787C1.03076 19.5 0 18.4692 0 17.2021V6.79787C0 5.53075 1.03075 4.5 2.29786 4.5H19.7986ZM22.4999 12C22.4999 8.25 20.8287 6.56133 20.222 6.15758C20.0968 6.0743 19.9547 6.03192 19.7986 6.03192H16.851L16.851 10.5C19.518 10.6553 21.3832 11.1455 22.4999 12ZM15.3191 6.03191H2.29787C1.8755 6.03191 1.53191 6.3755 1.53191 6.79787L1.5319 10.4781H15.3191L15.3191 6.03191Z" fill="#161616"/>
<path d="M7.5 19.5C7.5 20.3284 6.82843 21 6 21C5.17157 21 4.5 20.3284 4.5 19.5C4.5 18.6716 5.17157 18 6 18C6.82843 18 7.5 18.6716 7.5 19.5Z" fill="#161616"/>
<path d="M18 21C18.8284 21 19.5 20.3284 19.5 19.5C19.5 18.6716 18.8284 18 18 18C17.1716 18 16.5 18.6716 16.5 19.5C16.5 20.3284 17.1716 21 18 21Z" fill="#161616"/>
</svg>
