<svg xmlns="http://www.w3.org/2000/svg" viewBox="0 0 16 11">
    <path d="M13.1991 0C13.5036 0 13.7968 0.0880952 14.0471 0.254985C14.7765 0.739697 15.9999 2.03724 15.9999 5.2766L16 8.46808C16 9.31283 15.3128 10 14.4681 10H14C14 8.89543 13.1046 8 12 8C10.8954 8 10 8.89543 10 10H6C6 8.89543 5.10457 8 4 8C2.89543 8 2 8.89543 2 10H1.53191C0.687175 10 0 9.31283 0 8.46808V1.53191C0 0.68717 0.687165 0 1.53191 0H13.1991ZM14.9999 5C14.9999 2.5 13.8858 1.37422 13.4813 1.10506C13.3979 1.04953 13.3031 1.02128 13.1991 1.02128H11.234L11.234 4C13.012 4.10352 14.2555 4.43035 14.9999 5ZM10.2127 1.02128H1.53191C1.25033 1.02128 1.02127 1.25034 1.02127 1.53191L1.02127 3.98537H10.2127L10.2127 1.02128Z"/>
    <path d="M5 10C5 10.5523 4.55228 11 4 11C3.44772 11 3 10.5523 3 10C3 9.44771 3.44772 9 4 9C4.55228 9 5 9.44771 5 10Z"/>
    <path d="M12 11C12.5523 11 13 10.5523 13 10C13 9.44771 12.5523 9 12 9C11.4477 9 11 9.44771 11 10C11 10.5523 11.4477 11 12 11Z"/>
  </svg>
