<svg xmlns="http://www.w3.org/2000/svg" viewBox="0 0 24 24"><path d="M10.855 4.231a2.497 2.497 0 0 1 1.766-.731h4.47A3.408 3.408 0 0 1 20.5 6.908v4.471c0 .662-.263 1.298-.731 1.766l-6.624 6.624a2.497 2.497 0 0 1-3.531 0l-5.383-5.383a2.497 2.497 0 0 1 0-3.53l6.624-6.625ZM12.621 2.5c-.928 0-1.817.368-2.473 1.024l-6.624 6.624a3.497 3.497 0 0 0 0 4.945l5.383 5.383a3.497 3.497 0 0 0 4.945 0l6.624-6.624a3.497 3.497 0 0 0 1.024-2.473V6.91a4.408 4.408 0 0 0-4.408-4.41H12.62ZM14.5 8a1.5 1.5 0 1 1 3 0 1.5 1.5 0 0 1-3 0ZM16 5.5a2.5 2.5 0 1 0 0 5 2.5 2.5 0 0 0 0-5Z" clip-rule="evenodd"/></svg>